<?xml version="1.0" encoding="UTF-8" standalone="no"?>
<!DOCTYPE svg PUBLIC "-//W3C//DTD SVG 1.1//EN" "http://www.w3.org/Graphics/SVG/1.1/DTD/svg11.dtd">
<svg width="100%" height="100%" viewBox="0 0 400 100" version="1.1" xmlns="http://www.w3.org/2000/svg" xmlns:xlink="http://www.w3.org/1999/xlink" xml:space="preserve" xmlns:serif="http://www.serif.com/" style="fill-rule:evenodd;clip-rule:evenodd;stroke-linejoin:round;stroke-miterlimit:2;">
    <path d="M12.927,16.371C12.398,16.952 12.433,17.843 12.988,18.398L81.583,86.992C82.138,87.547 83.029,87.582 83.609,87.054C93.667,77.902 99.981,64.706 99.981,50.036C99.981,22.402 77.579,0 49.945,0C35.274,0 22.079,6.313 12.927,16.371ZM4.353,29.389C4.1,29.948 4.228,30.604 4.662,31.037L68.943,95.319C69.377,95.753 70.032,95.881 70.591,95.627C72.076,94.954 73.523,94.21 74.926,93.4C75.76,92.918 75.888,91.78 75.207,91.099L8.881,24.774C8.2,24.093 7.063,24.221 6.581,25.055C5.771,26.458 5.027,27.904 4.353,29.389ZM0.454,47.796C0.153,47.495 -0.008,47.08 0.021,46.655C0.153,44.666 0.402,42.709 0.761,40.79C0.976,39.64 2.382,39.241 3.209,40.068L59.912,96.772C60.74,97.599 60.341,99.005 59.19,99.22C57.271,99.578 55.314,99.827 53.325,99.96C52.9,99.988 52.486,99.828 52.185,99.527L0.454,47.796ZM3.933,61.759C2.9,60.726 1.233,61.616 1.611,63.027C6.221,80.22 19.76,93.76 36.954,98.369C38.365,98.748 39.255,97.081 38.222,96.047L3.933,61.759ZM201.602,27.535C205.189,27.535 208.096,24.617 208.096,21.017C208.096,17.418 205.189,14.5 201.602,14.5C198.016,14.5 195.109,17.418 195.109,21.017C195.109,24.617 198.016,27.535 201.602,27.535ZM145.981,84.375L145.981,14.504L157.521,14.504L157.521,74.152L188.636,74.152L188.636,84.375L145.981,84.375ZM228.117,55.864L228.117,84.375L216.951,84.375L216.951,34.856L227.977,34.856L227.977,43.343L228.117,43.249C229.238,40.592 231.045,38.373 233.537,36.591C236.028,34.777 239.205,33.871 243.068,33.871C246.494,33.871 249.608,34.637 252.412,36.169C255.215,37.669 257.457,39.873 259.139,42.78C260.821,45.688 261.662,49.252 261.662,53.472L261.662,84.375L250.496,84.375L250.496,55.02C250.496,51.268 249.499,48.423 247.506,46.485C245.544,44.516 242.912,43.531 239.61,43.531C237.492,43.531 235.561,43.968 233.817,44.844C232.073,45.719 230.687,47.063 229.659,48.877C228.631,50.69 228.117,53.019 228.117,55.864ZM329.222,83.531C331.776,84.625 334.704,85.172 338.005,85.172C340.715,85.172 343.035,84.828 344.966,84.14C346.898,83.421 348.486,82.468 349.732,81.28C351.009,80.092 352.021,78.794 352.769,77.388L352.956,77.388L352.956,84.375L363.655,84.375L363.655,50.283C363.655,47.876 363.187,45.672 362.253,43.671C361.319,41.671 359.964,39.936 358.188,38.466C356.444,36.997 354.326,35.872 351.834,35.09C349.343,34.277 346.539,33.871 343.425,33.871C339.158,33.871 335.467,34.605 332.352,36.075C329.268,37.513 326.855,39.451 325.11,41.89C323.366,44.328 322.416,47.079 322.26,50.143L333.053,50.143C333.177,48.705 333.676,47.423 334.548,46.297C335.42,45.172 336.604,44.297 338.099,43.671C339.594,43.015 341.322,42.687 343.285,42.687C345.247,42.687 346.913,43.015 348.284,43.671C349.685,44.328 350.76,45.219 351.507,46.344C352.255,47.47 352.629,48.783 352.629,50.283L352.629,50.659C352.629,51.784 352.239,52.612 351.461,53.144C350.713,53.675 349.436,54.066 347.63,54.316C345.854,54.566 343.425,54.863 340.341,55.207C337.818,55.488 335.389,55.911 333.053,56.473C330.717,57.036 328.63,57.864 326.792,58.959C324.986,60.053 323.553,61.506 322.494,63.32C321.435,65.133 320.906,67.462 320.906,70.307C320.906,73.589 321.653,76.34 323.148,78.56C324.643,80.748 326.668,82.405 329.222,83.53ZM347.303,75.23C345.496,76.2 343.269,76.684 340.622,76.684C337.943,76.684 335.809,76.121 334.221,74.996C332.632,73.839 331.838,72.26 331.838,70.26C331.838,68.697 332.274,67.431 333.146,66.461C334.05,65.492 335.233,64.726 336.697,64.164C338.161,63.601 339.749,63.21 341.462,62.991C342.708,62.804 343.923,62.616 345.107,62.429C346.29,62.21 347.396,62.007 348.424,61.819C349.452,61.6 350.324,61.381 351.04,61.162C351.788,60.944 352.333,60.709 352.675,60.459L352.675,65.992C352.675,67.931 352.224,69.713 351.32,71.338C350.448,72.933 349.109,74.23 347.303,75.23ZM373.397,84.375L373.397,34.856L384.142,34.856L384.142,43.015L384.283,43.015C385.186,40.201 386.603,38.06 388.534,36.591C390.496,35.09 393.066,34.34 396.243,34.34C397.022,34.34 397.723,34.371 398.345,34.434C399,34.465 399.545,34.496 399.981,34.527L399.981,44.609C399.576,44.547 398.859,44.469 397.832,44.375C396.804,44.281 395.714,44.234 394.561,44.234C392.723,44.234 391.042,44.656 389.515,45.5C387.989,46.344 386.774,47.642 385.871,49.392C384.999,51.112 384.563,53.285 384.563,55.911L384.563,84.375L373.397,84.375ZM195.996,84.375L195.996,34.856L207.162,34.856L207.162,84.375L195.996,84.375ZM280.234,82.171C283.816,84.39 288.068,85.5 292.989,85.5C296.789,85.5 300.246,84.812 303.361,83.437C306.507,82.03 309.123,80.107 311.21,77.669C313.297,75.199 314.652,72.354 315.275,69.134L304.763,69.134C304.295,70.604 303.532,71.901 302.473,73.026C301.446,74.121 300.153,74.98 298.596,75.606C297.038,76.231 295.232,76.543 293.176,76.543C290.404,76.543 288.021,75.918 286.028,74.668C284.066,73.417 282.571,71.682 281.543,69.463C280.61,67.42 280.1,65.106 280.014,62.522L315.929,62.522L315.929,59.521C315.929,55.707 315.368,52.237 314.247,49.111C313.126,45.954 311.537,43.234 309.481,40.952C307.426,38.638 304.95,36.856 302.053,35.606C299.187,34.355 295.995,33.73 292.475,33.73C287.897,33.73 283.848,34.84 280.328,37.06C276.808,39.279 274.052,42.343 272.058,46.251C270.065,50.158 269.068,54.629 269.068,59.662C269.068,64.664 270.034,69.119 271.965,73.026C273.896,76.903 276.653,79.951 280.234,82.171ZM303.735,49.392C302.707,47.267 301.243,45.625 299.343,44.469C297.443,43.312 295.201,42.734 292.615,42.734C290.061,42.734 287.834,43.312 285.934,44.469C284.066,45.625 282.602,47.267 281.543,49.392C280.787,50.932 280.309,52.683 280.109,54.644L305.168,54.644C304.968,52.683 304.49,50.932 303.735,49.392Z" style="fill:rgb(17,24,39);"/>
</svg>
