<?xml version="1.0" encoding="UTF-8" standalone="no"?>
<!DOCTYPE svg PUBLIC "-//W3C//DTD SVG 1.1//EN" "http://www.w3.org/Graphics/SVG/1.1/DTD/svg11.dtd">
<svg width="100%" height="100%" viewBox="0 0 62 20" version="1.1" xmlns="http://www.w3.org/2000/svg" xmlns:xlink="http://www.w3.org/1999/xlink" xml:space="preserve" xmlns:serif="http://www.serif.com/" style="fill-rule:evenodd;clip-rule:evenodd;stroke-linejoin:round;stroke-miterlimit:2;">
    <g>
        <path d="M29.579,17.396L29.564,17.428C28.691,19.105 27.306,19.92 25.328,19.92C22.766,19.92 20.906,18.113 20.906,15.626C20.906,13.216 22.709,11.509 25.5,11.275L29.425,10.942L29.477,10.939L29.477,9.97C29.477,8.554 28.687,7.805 27.193,7.805C25.704,7.805 24.77,8.569 24.742,9.801L21.381,9.801C21.514,6.981 23.788,5.233 27.332,5.233C30.798,5.233 32.785,6.979 32.785,10.025L32.785,17.013L35.178,17.013L35.178,19.587L29.811,19.587L29.783,17.454L29.783,17.396L29.579,17.396ZM29.477,14.074L29.477,13.456L26.289,13.731C26.216,13.74 24.497,13.939 24.093,14.689C23.91,15.052 23.878,15.473 24.004,15.859C24.105,16.192 24.36,16.661 24.988,16.992C25.287,17.176 25.681,17.29 26.16,17.33L26.211,17.337L26.29,17.347L26.328,17.342C26.401,17.345 26.476,17.347 26.553,17.347C28.275,17.347 29.477,16.001 29.477,14.074ZM8.422,0.783C8.474,0.789 8.522,0.796 8.565,0.805C10.018,0.994 11.353,1.705 12.322,2.804C13.334,3.952 13.87,5.444 13.819,6.974C13.769,8.504 13.136,9.957 12.05,11.036C10.914,12.166 9.376,12.801 7.773,12.8C7.716,12.8 7.66,12.798 7.604,12.793L7.509,12.787L3.523,12.787L3.523,19.59L0,19.59L0,0.747L7.788,0.747L7.802,0.749C8.003,0.749 8.205,0.759 8.407,0.78L8.422,0.783ZM9.469,3.839L3.523,3.839L3.523,9.762L9.469,9.762L9.469,3.837L9.469,3.839ZM15.493,19.61L18.879,19.61L18.879,0.691L15.493,0.691L15.493,19.61ZM36.866,4.098L40.229,4.098L40.229,0.747L36.866,0.747L36.866,4.098ZM54.789,19.587L54.789,10.387C54.789,7.014 53.202,5.233 50.198,5.233C48.318,5.233 46.96,6.003 46.046,7.587L45.937,7.775L45.937,5.564L42.575,5.564L42.575,19.587L45.938,19.587L45.938,11.467C45.938,9.327 47.163,7.944 49.058,7.944C50.651,7.944 51.426,8.824 51.426,10.635L51.426,19.587L54.789,19.587ZM57.08,19.587L61.44,19.587L61.44,15.244L57.08,15.244L57.08,19.587ZM40.22,19.61L36.834,19.61L36.834,5.6L40.22,5.6L40.22,19.61Z" style="fill:rgb(17,24,39);fill-rule:nonzero;"/>
    </g>
</svg>
