<?xml version="1.0" encoding="UTF-8" standalone="no"?>
<!DOCTYPE svg PUBLIC "-//W3C//DTD SVG 1.1//EN" "http://www.w3.org/Graphics/SVG/1.1/DTD/svg11.dtd">
<svg width="100%" height="100%" viewBox="0 0 512 214" version="1.1" xmlns="http://www.w3.org/2000/svg" xmlns:xlink="http://www.w3.org/1999/xlink" xml:space="preserve" xmlns:serif="http://www.serif.com/" style="fill-rule:evenodd;clip-rule:evenodd;stroke-linejoin:round;stroke-miterlimit:2;">
    <g>
        <path d="M512,110.08C512,73.671 494.364,44.942 460.658,44.942C426.809,44.942 406.329,73.671 406.329,109.796C406.329,152.604 430.507,174.222 465.209,174.222C482.133,174.222 494.933,170.382 504.604,164.978L504.604,136.533C494.933,141.369 483.84,144.356 469.76,144.356C455.964,144.356 443.733,139.52 442.169,122.738L511.716,122.738C511.716,120.889 512,113.493 512,110.08ZM441.742,96.569C441.742,80.498 451.556,73.813 460.516,73.813C469.191,73.813 478.436,80.498 478.436,96.569L441.742,96.569ZM351.431,44.942C337.493,44.942 328.533,51.484 323.556,56.036L321.707,47.218L290.418,47.218L290.418,213.049L325.973,205.511L326.116,165.262C331.236,168.96 338.773,174.222 351.289,174.222C376.747,174.222 399.929,153.742 399.929,108.658C399.787,67.413 376.32,44.942 351.431,44.942ZM342.898,142.933C334.507,142.933 329.529,139.947 326.116,136.249L325.973,83.484C329.671,79.36 334.791,76.516 342.898,76.516C355.84,76.516 364.8,91.022 364.8,109.653C364.8,128.711 355.982,142.933 342.898,142.933ZM241.493,36.551L277.191,28.871L277.191,0L241.493,7.538L241.493,36.551ZM241.493,47.36L277.191,47.36L277.191,171.804L241.493,171.804L241.493,47.36ZM203.236,57.884L200.96,47.36L170.24,47.36L170.24,171.804L205.796,171.804L205.796,87.467C214.187,76.516 228.409,78.507 232.818,80.071L232.818,47.36C228.267,45.653 211.627,42.524 203.236,57.884ZM132.124,16.498L97.422,23.893L97.28,137.813C97.28,158.862 113.067,174.364 134.116,174.364C145.778,174.364 154.311,172.231 159.004,169.671L159.004,140.8C154.453,142.649 131.982,149.191 131.982,128.142L131.982,77.653L159.004,77.653L159.004,47.36L131.982,47.36L132.124,16.498ZM35.982,83.484C35.982,77.938 40.533,75.804 48.071,75.804C58.88,75.804 72.533,79.076 83.342,84.907L83.342,51.484C71.538,46.791 59.876,44.942 48.071,44.942C19.2,44.942 0,60.018 0,85.191C0,124.444 54.044,118.187 54.044,135.111C54.044,141.653 48.356,143.787 40.391,143.787C28.587,143.787 13.511,138.951 1.564,132.409L1.564,166.258C14.791,171.947 28.16,174.364 40.391,174.364C69.973,174.364 90.311,159.716 90.311,134.258C90.169,91.876 35.982,99.413 35.982,83.484Z" style="fill:rgb(17,24,39);fill-rule:nonzero;"/>
    </g>
</svg>
