<svg clip-rule="evenodd" fill-rule="evenodd" viewBox="0 0 16 16" xmlns="http://www.w3.org/2000/svg"><path d="m3.05 3.05c1.312-1.312 3.094-2.05 4.95-2.05 3.84 0 7 3.16 7 7 0 1.856-.738 3.638-2.05 4.95s-3.094 2.05-4.95 2.05c-3.84 0-7-3.16-7-7 0-1.856.738-3.638 2.05-4.95z" fill="none" stroke="#4f46e5" stroke-opacity=".5" stroke-width="2"/><g fill="#4f46e5"><path d="m8 4c-2.194 0-4 1.806-4 4s1.806 4 4 4 4-1.806 4-4-1.806-4-4-4z"/><path d="m14 8c0-3.292-2.708-6-6-6v-2c4.389-0 8 3.611 8 8z" fill-rule="nonzero"/></g></svg>